;TYPE=PLATED
;Layer: PTH_Through_Via
;EasyEDA Pro v2.2.47.7, 2026-05-17 18:59:03
;Gerber Generator version 0.3
M48
METRIC,LZ,0000.00000
;Hole size 1 = 0.30500 METRIC
T01C0.30500
%
G05
G90
T01
X47.117Y16.82023
X47.117Y16.05823
X50.05227Y20.45872
X50.59109Y19.9199
X15.93113Y23.749
X14.732Y15.85948
X25.527Y11.04791
X20.828Y22.28698
X25.654Y16.764
X25.654Y18.923
X25.654Y20.828
X25.654Y23.114
X45.085Y23.876
X44.958Y21.209
X58.547Y14.478
X49.403Y16.129
X67.945Y13.335
X51.308Y24.257
X69.977Y23.368
X39.497Y22.479
X30.607Y17.526
X60.5282Y20.701
M30