;TYPE=PLATED
;Layer: PTH_Through
;EasyEDA Pro v2.2.47.7, 2026-05-17 18:59:03
;Gerber Generator version 0.3
M48
METRIC,LZ,0000.00000
;Hole size 1 = 0.30500 METRIC
T01C0.30500
;Hole size 2 = 0.70002 METRIC
T02C0.70002
%
G05
G90
T01
X47.117Y16.82023
X47.117Y16.05823
X50.05227Y20.45872
X50.59109Y19.9199
X15.93113Y23.749
X14.732Y15.85948
X25.527Y11.04791
X20.828Y22.28698
X25.654Y16.764
X25.654Y18.923
X25.654Y20.828
X25.654Y23.114
X45.085Y23.876
X44.958Y21.209
X58.547Y14.478
X49.403Y16.129
X67.945Y13.335
X51.308Y24.257
X69.977Y23.368
X39.497Y22.479
X30.607Y17.526
X60.5282Y20.701
T02
X81.45624Y25.50452G85X83.25621Y25.50452
X81.45624Y12.60437G85X83.25621Y12.60437
X61.44108Y3.36302G85X61.44108Y1.56305
X48.54092Y3.36302G85X48.54092Y1.56305
X48.67925Y35.06834G85X48.67925Y36.86832
X61.5794Y35.06834G85X61.5794Y36.86832
X26.25133Y3.15797G85X26.25133Y1.358
X13.35118Y3.15797G85X13.35118Y1.358
X12.98092Y34.86398G85X12.98092Y36.66395
X25.88108Y34.86398G85X25.88108Y36.66395
M30