G04 Layer: TopSilkscreenLayer*
G04 EasyEDA Pro v2.2.47.7, 2026-05-17 18:59:03*
G04 Gerber Generator version 0.3*
G04 Scale: 100 percent, Rotated: No, Reflected: No*
G04 Dimensions in millimeters*
G04 Leading zeros omitted, absolute positions, 4 integers and 5 decimals*
G04 Generated by one-click*
G04 Object Configs: Pad,Via,Track,Text,Image,Dimension,BoardOutline,BoardCutout,CopperFilled,SolidRegion,FPCStiffener,Line,PlaneZone,ComponentProperty,ComponentSilkscreen,TearDrop*
G04 Layer Configs: 1,2,3,4,5,6,7,8,9,10,11,13,14,56*
G04 Copper Areas: 0*
%FSLAX45Y45*%
%MOMM*%
%ADD10C,0.1524*%
%ADD11C,0.254*%
%ADD12C,0.2360*%
G75*


G04 Text Start*
G54D10*
G01X6747002Y1577340D02*
G01X6743954Y1583690D01*
G01X6737604Y1589786D01*
G01X6731508Y1592834D01*
G01X6719062Y1592834D01*
G01X6712966Y1589786D01*
G01X6706616Y1583690D01*
G01X6703568Y1577340D01*
G01X6700520Y1568196D01*
G01X6700520Y1552702D01*
G01X6703568Y1543304D01*
G01X6706616Y1537208D01*
G01X6712966Y1530858D01*
G01X6719062Y1527810D01*
G01X6731508Y1527810D01*
G01X6737604Y1530858D01*
G01X6743954Y1537208D01*
G01X6747002Y1543304D01*
G01X6777228Y1580388D02*
G01X6783324Y1583690D01*
G01X6792468Y1592834D01*
G01X6792468Y1527810D01*
G01X5299202Y1450340D02*
G01X5296154Y1456690D01*
G01X5289804Y1462786D01*
G01X5283708Y1465834D01*
G01X5271262Y1465834D01*
G01X5265166Y1462786D01*
G01X5258816Y1456690D01*
G01X5255768Y1450340D01*
G01X5252720Y1441196D01*
G01X5252720Y1425702D01*
G01X5255768Y1416304D01*
G01X5258816Y1410208D01*
G01X5265166Y1403858D01*
G01X5271262Y1400810D01*
G01X5283708Y1400810D01*
G01X5289804Y1403858D01*
G01X5296154Y1410208D01*
G01X5299202Y1416304D01*
G01X5366512Y1465834D02*
G01X5335524Y1465834D01*
G01X5332476Y1438148D01*
G01X5335524Y1441196D01*
G01X5344668Y1444244D01*
G01X5354066Y1444244D01*
G01X5363464Y1441196D01*
G01X5369560Y1434846D01*
G01X5372608Y1425702D01*
G01X5372608Y1419352D01*
G01X5369560Y1410208D01*
G01X5363464Y1403858D01*
G01X5354066Y1400810D01*
G01X5344668Y1400810D01*
G01X5335524Y1403858D01*
G01X5332476Y1407160D01*
G01X5329428Y1413256D01*
G01X2246122Y2096008D02*
G01X2244090Y2099818D01*
G01X2240280Y2103628D01*
G01X2236470Y2105660D01*
G01X2228850Y2105660D01*
G01X2225040Y2103628D01*
G01X2221230Y2099818D01*
G01X2219452Y2096008D01*
G01X2217420Y2090420D01*
G01X2217420Y2080768D01*
G01X2219452Y2075180D01*
G01X2221230Y2071370D01*
G01X2225040Y2067560D01*
G01X2228850Y2065528D01*
G01X2236470Y2065528D01*
G01X2240280Y2067560D01*
G01X2244090Y2071370D01*
G01X2246122Y2075180D01*
G01X2270506Y2098040D02*
G01X2274316Y2099818D01*
G01X2280158Y2105660D01*
G01X2280158Y2065528D01*
G01X2323592Y2105660D02*
G01X2304542Y2078990D01*
G01X2333244Y2078990D01*
G01X2323592Y2105660D02*
G01X2323592Y2065528D01*
G01X2736987Y3362051D02*
G01X2736987Y3315569D01*
G01X2740035Y3306425D01*
G01X2746385Y3300075D01*
G01X2755529Y3297027D01*
G01X2761879Y3297027D01*
G01X2771023Y3300075D01*
G01X2777119Y3306425D01*
G01X2780421Y3315569D01*
G01X2780421Y3362051D01*
G01X2853827Y3352907D02*
G01X2847731Y3359003D01*
G01X2838333Y3362051D01*
G01X2825887Y3362051D01*
G01X2816743Y3359003D01*
G01X2810647Y3352907D01*
G01X2810647Y3346557D01*
G01X2813695Y3340461D01*
G01X2816743Y3337413D01*
G01X2822839Y3334365D01*
G01X2841381Y3328015D01*
G01X2847731Y3324967D01*
G01X2850779Y3321919D01*
G01X2853827Y3315569D01*
G01X2853827Y3306425D01*
G01X2847731Y3300075D01*
G01X2838333Y3297027D01*
G01X2825887Y3297027D01*
G01X2816743Y3300075D01*
G01X2810647Y3306425D01*
G01X2884053Y3362051D02*
G01X2884053Y3297027D01*
G01X2884053Y3362051D02*
G01X2911739Y3362051D01*
G01X2921137Y3359003D01*
G01X2924185Y3355955D01*
G01X2927233Y3349605D01*
G01X2927233Y3343509D01*
G01X2924185Y3337413D01*
G01X2921137Y3334365D01*
G01X2911739Y3331063D01*
G01X2884053Y3331063D02*
G01X2911739Y3331063D01*
G01X2921137Y3328015D01*
G01X2924185Y3324967D01*
G01X2927233Y3318871D01*
G01X2927233Y3309473D01*
G01X2924185Y3303377D01*
G01X2921137Y3300075D01*
G01X2911739Y3297027D01*
G01X2884053Y3297027D01*
G01X2994543Y3362051D02*
G01X2963555Y3362051D01*
G01X2960507Y3334365D01*
G01X2963555Y3337413D01*
G01X2972699Y3340461D01*
G01X2982097Y3340461D01*
G01X2991495Y3337413D01*
G01X2997591Y3331063D01*
G01X3000639Y3321919D01*
G01X3000639Y3315569D01*
G01X2997591Y3306425D01*
G01X2991495Y3300075D01*
G01X2982097Y3297027D01*
G01X2972699Y3297027D01*
G01X2963555Y3300075D01*
G01X2960507Y3303377D01*
G01X2957459Y3309473D01*
G01X3512820Y2138934D02*
G01X3512820Y2092452D01*
G01X3515868Y2083308D01*
G01X3522218Y2076958D01*
G01X3531362Y2073910D01*
G01X3537712Y2073910D01*
G01X3546856Y2076958D01*
G01X3552952Y2083308D01*
G01X3556254Y2092452D01*
G01X3556254Y2138934D01*
G01X3586480Y2126488D02*
G01X3592576Y2129790D01*
G01X3601720Y2138934D01*
G01X3601720Y2073910D01*
G01X4524502Y2275840D02*
G01X4521454Y2282190D01*
G01X4515104Y2288286D01*
G01X4509008Y2291334D01*
G01X4496562Y2291334D01*
G01X4490466Y2288286D01*
G01X4484116Y2282190D01*
G01X4481068Y2275840D01*
G01X4478020Y2266696D01*
G01X4478020Y2251202D01*
G01X4481068Y2241804D01*
G01X4484116Y2235708D01*
G01X4490466Y2229358D01*
G01X4496562Y2226310D01*
G01X4509008Y2226310D01*
G01X4515104Y2229358D01*
G01X4521454Y2235708D01*
G01X4524502Y2241804D01*
G01X4597908Y2291334D02*
G01X4566920Y2226310D01*
G01X4554728Y2291334D02*
G01X4597908Y2291334D01*
G01X4524502Y2009140D02*
G01X4521454Y2015490D01*
G01X4515104Y2021586D01*
G01X4509008Y2024634D01*
G01X4496562Y2024634D01*
G01X4490466Y2021586D01*
G01X4484116Y2015490D01*
G01X4481068Y2009140D01*
G01X4478020Y1999996D01*
G01X4478020Y1984502D01*
G01X4481068Y1975104D01*
G01X4484116Y1969008D01*
G01X4490466Y1962658D01*
G01X4496562Y1959610D01*
G01X4509008Y1959610D01*
G01X4515104Y1962658D01*
G01X4521454Y1969008D01*
G01X4524502Y1975104D01*
G01X4591812Y2015490D02*
G01X4588764Y2021586D01*
G01X4579366Y2024634D01*
G01X4573270Y2024634D01*
G01X4563872Y2021586D01*
G01X4557776Y2012188D01*
G01X4554728Y1996948D01*
G01X4554728Y1981454D01*
G01X4557776Y1969008D01*
G01X4563872Y1962658D01*
G01X4573270Y1959610D01*
G01X4576318Y1959610D01*
G01X4585462Y1962658D01*
G01X4591812Y1969008D01*
G01X4594860Y1978152D01*
G01X4594860Y1981454D01*
G01X4591812Y1990598D01*
G01X4585462Y1996948D01*
G01X4576318Y1999996D01*
G01X4573270Y1999996D01*
G01X4563872Y1996948D01*
G01X4557776Y1990598D01*
G01X4554728Y1981454D01*
G01X6243320Y678434D02*
G01X6243320Y631952D01*
G01X6246368Y622808D01*
G01X6252718Y616458D01*
G01X6261862Y613410D01*
G01X6268212Y613410D01*
G01X6277356Y616458D01*
G01X6283452Y622808D01*
G01X6286754Y631952D01*
G01X6286754Y678434D01*
G01X6360160Y669290D02*
G01X6354064Y675386D01*
G01X6344666Y678434D01*
G01X6332220Y678434D01*
G01X6323076Y675386D01*
G01X6316980Y669290D01*
G01X6316980Y662940D01*
G01X6320028Y656844D01*
G01X6323076Y653796D01*
G01X6329172Y650748D01*
G01X6347714Y644398D01*
G01X6354064Y641350D01*
G01X6357112Y638302D01*
G01X6360160Y631952D01*
G01X6360160Y622808D01*
G01X6354064Y616458D01*
G01X6344666Y613410D01*
G01X6332220Y613410D01*
G01X6323076Y616458D01*
G01X6316980Y622808D01*
G01X6390386Y678434D02*
G01X6390386Y613410D01*
G01X6390386Y678434D02*
G01X6418072Y678434D01*
G01X6427470Y675386D01*
G01X6430518Y672338D01*
G01X6433566Y665988D01*
G01X6433566Y659892D01*
G01X6430518Y653796D01*
G01X6427470Y650748D01*
G01X6418072Y647446D01*
G01X6390386Y647446D02*
G01X6418072Y647446D01*
G01X6427470Y644398D01*
G01X6430518Y641350D01*
G01X6433566Y635254D01*
G01X6433566Y625856D01*
G01X6430518Y619760D01*
G01X6427470Y616458D01*
G01X6418072Y613410D01*
G01X6390386Y613410D01*
G01X6466840Y662940D02*
G01X6466840Y665988D01*
G01X6469888Y672338D01*
G01X6472936Y675386D01*
G01X6479032Y678434D01*
G01X6491478Y678434D01*
G01X6497828Y675386D01*
G01X6500876Y672338D01*
G01X6503924Y665988D01*
G01X6503924Y659892D01*
G01X6500876Y653796D01*
G01X6494526Y644398D01*
G01X6463792Y613410D01*
G01X6506972Y613410D01*
G01X1603502Y1755140D02*
G01X1600454Y1761490D01*
G01X1594104Y1767586D01*
G01X1588008Y1770634D01*
G01X1575562Y1770634D01*
G01X1569466Y1767586D01*
G01X1563116Y1761490D01*
G01X1560068Y1755140D01*
G01X1557020Y1745996D01*
G01X1557020Y1730502D01*
G01X1560068Y1721104D01*
G01X1563116Y1715008D01*
G01X1569466Y1708658D01*
G01X1575562Y1705610D01*
G01X1588008Y1705610D01*
G01X1594104Y1708658D01*
G01X1600454Y1715008D01*
G01X1603502Y1721104D01*
G01X1633728Y1758188D02*
G01X1639824Y1761490D01*
G01X1648968Y1770634D01*
G01X1648968Y1705610D01*
G01X1685290Y1770634D02*
G01X1719326Y1770634D01*
G01X1700784Y1745996D01*
G01X1709928Y1745996D01*
G01X1716278Y1742948D01*
G01X1719326Y1739646D01*
G01X1722374Y1730502D01*
G01X1722374Y1724152D01*
G01X1719326Y1715008D01*
G01X1713230Y1708658D01*
G01X1703832Y1705610D01*
G01X1694434Y1705610D01*
G01X1685290Y1708658D01*
G01X1682242Y1711960D01*
G01X1679194Y1718056D01*
G01X2725420Y627634D02*
G01X2725420Y581152D01*
G01X2728468Y572008D01*
G01X2734818Y565658D01*
G01X2743962Y562610D01*
G01X2750312Y562610D01*
G01X2759456Y565658D01*
G01X2765552Y572008D01*
G01X2768854Y581152D01*
G01X2768854Y627634D01*
G01X2842260Y618490D02*
G01X2836164Y624586D01*
G01X2826766Y627634D01*
G01X2814320Y627634D01*
G01X2805176Y624586D01*
G01X2799080Y618490D01*
G01X2799080Y612140D01*
G01X2802128Y606044D01*
G01X2805176Y602996D01*
G01X2811272Y599948D01*
G01X2829814Y593598D01*
G01X2836164Y590550D01*
G01X2839212Y587502D01*
G01X2842260Y581152D01*
G01X2842260Y572008D01*
G01X2836164Y565658D01*
G01X2826766Y562610D01*
G01X2814320Y562610D01*
G01X2805176Y565658D01*
G01X2799080Y572008D01*
G01X2872486Y627634D02*
G01X2872486Y562610D01*
G01X2872486Y627634D02*
G01X2900172Y627634D01*
G01X2909570Y624586D01*
G01X2912618Y621538D01*
G01X2915666Y615188D01*
G01X2915666Y609092D01*
G01X2912618Y602996D01*
G01X2909570Y599948D01*
G01X2900172Y596646D01*
G01X2872486Y596646D02*
G01X2900172Y596646D01*
G01X2909570Y593598D01*
G01X2912618Y590550D01*
G01X2915666Y584454D01*
G01X2915666Y575056D01*
G01X2912618Y568960D01*
G01X2909570Y565658D01*
G01X2900172Y562610D01*
G01X2872486Y562610D01*
G01X2976626Y627634D02*
G01X2945892Y584454D01*
G01X2992120Y584454D01*
G01X2976626Y627634D02*
G01X2976626Y562610D01*
G01X5629402Y2225040D02*
G01X5626354Y2231390D01*
G01X5620004Y2237486D01*
G01X5613908Y2240534D01*
G01X5601462Y2240534D01*
G01X5595366Y2237486D01*
G01X5589016Y2231390D01*
G01X5585968Y2225040D01*
G01X5582920Y2215896D01*
G01X5582920Y2200402D01*
G01X5585968Y2191004D01*
G01X5589016Y2184908D01*
G01X5595366Y2178558D01*
G01X5601462Y2175510D01*
G01X5613908Y2175510D01*
G01X5620004Y2178558D01*
G01X5626354Y2184908D01*
G01X5629402Y2191004D01*
G01X5659628Y2228088D02*
G01X5665724Y2231390D01*
G01X5674868Y2240534D01*
G01X5674868Y2175510D01*
G01X5708142Y2225040D02*
G01X5708142Y2228088D01*
G01X5711190Y2234438D01*
G01X5714238Y2237486D01*
G01X5720334Y2240534D01*
G01X5732780Y2240534D01*
G01X5739130Y2237486D01*
G01X5742178Y2234438D01*
G01X5745226Y2228088D01*
G01X5745226Y2221992D01*
G01X5742178Y2215896D01*
G01X5735828Y2206498D01*
G01X5705094Y2175510D01*
G01X5748274Y2175510D01*
G01X6344920Y3383534D02*
G01X6344920Y3337052D01*
G01X6347968Y3327908D01*
G01X6354318Y3321558D01*
G01X6363462Y3318510D01*
G01X6369812Y3318510D01*
G01X6378956Y3321558D01*
G01X6385052Y3327908D01*
G01X6388354Y3337052D01*
G01X6388354Y3383534D01*
G01X6461760Y3374390D02*
G01X6455664Y3380486D01*
G01X6446266Y3383534D01*
G01X6433820Y3383534D01*
G01X6424676Y3380486D01*
G01X6418580Y3374390D01*
G01X6418580Y3368040D01*
G01X6421628Y3361944D01*
G01X6424676Y3358896D01*
G01X6430772Y3355848D01*
G01X6449314Y3349498D01*
G01X6455664Y3346450D01*
G01X6458712Y3343402D01*
G01X6461760Y3337052D01*
G01X6461760Y3327908D01*
G01X6455664Y3321558D01*
G01X6446266Y3318510D01*
G01X6433820Y3318510D01*
G01X6424676Y3321558D01*
G01X6418580Y3327908D01*
G01X6491986Y3383534D02*
G01X6491986Y3318510D01*
G01X6491986Y3383534D02*
G01X6519672Y3383534D01*
G01X6529070Y3380486D01*
G01X6532118Y3377438D01*
G01X6535166Y3371088D01*
G01X6535166Y3364992D01*
G01X6532118Y3358896D01*
G01X6529070Y3355848D01*
G01X6519672Y3352546D01*
G01X6491986Y3352546D02*
G01X6519672Y3352546D01*
G01X6529070Y3349498D01*
G01X6532118Y3346450D01*
G01X6535166Y3340354D01*
G01X6535166Y3330956D01*
G01X6532118Y3324860D01*
G01X6529070Y3321558D01*
G01X6519672Y3318510D01*
G01X6491986Y3318510D01*
G01X6571488Y3383534D02*
G01X6605524Y3383534D01*
G01X6586982Y3358896D01*
G01X6596126Y3358896D01*
G01X6602476Y3355848D01*
G01X6605524Y3352546D01*
G01X6608572Y3343402D01*
G01X6608572Y3337052D01*
G01X6605524Y3327908D01*
G01X6599428Y3321558D01*
G01X6590030Y3318510D01*
G01X6580632Y3318510D01*
G01X6571488Y3321558D01*
G01X6568440Y3324860D01*
G01X6565392Y3330956D01*
G01X2550922Y1791208D02*
G01X2548890Y1795018D01*
G01X2545080Y1798828D01*
G01X2541270Y1800860D01*
G01X2533650Y1800860D01*
G01X2529840Y1798828D01*
G01X2526030Y1795018D01*
G01X2524252Y1791208D01*
G01X2522220Y1785620D01*
G01X2522220Y1775968D01*
G01X2524252Y1770380D01*
G01X2526030Y1766570D01*
G01X2529840Y1762760D01*
G01X2533650Y1760728D01*
G01X2541270Y1760728D01*
G01X2545080Y1762760D01*
G01X2548890Y1766570D01*
G01X2550922Y1770380D01*
G01X2584958Y1800860D02*
G01X2579116Y1798828D01*
G01X2577338Y1795018D01*
G01X2577338Y1791208D01*
G01X2579116Y1787398D01*
G01X2582926Y1785620D01*
G01X2590546Y1783588D01*
G01X2596388Y1781810D01*
G01X2600198Y1778000D01*
G01X2601976Y1774190D01*
G01X2601976Y1768348D01*
G01X2600198Y1764538D01*
G01X2598166Y1762760D01*
G01X2592578Y1760728D01*
G01X2584958Y1760728D01*
G01X2579116Y1762760D01*
G01X2577338Y1764538D01*
G01X2575306Y1768348D01*
G01X2575306Y1774190D01*
G01X2577338Y1778000D01*
G01X2581148Y1781810D01*
G01X2586736Y1783588D01*
G01X2594356Y1785620D01*
G01X2598166Y1787398D01*
G01X2600198Y1791208D01*
G01X2600198Y1795018D01*
G01X2598166Y1798828D01*
G01X2592578Y1800860D01*
G01X2584958Y1800860D01*
G01X2538222Y2451608D02*
G01X2536190Y2455418D01*
G01X2532380Y2459228D01*
G01X2528570Y2461260D01*
G01X2520950Y2461260D01*
G01X2517140Y2459228D01*
G01X2513330Y2455418D01*
G01X2511552Y2451608D01*
G01X2509520Y2446020D01*
G01X2509520Y2436368D01*
G01X2511552Y2430780D01*
G01X2513330Y2426970D01*
G01X2517140Y2423160D01*
G01X2520950Y2421128D01*
G01X2528570Y2421128D01*
G01X2532380Y2423160D01*
G01X2536190Y2426970D01*
G01X2538222Y2430780D01*
G01X2562606Y2453640D02*
G01X2566416Y2455418D01*
G01X2572258Y2461260D01*
G01X2572258Y2421128D01*
G01X2596642Y2453640D02*
G01X2600452Y2455418D01*
G01X2606294Y2461260D01*
G01X2606294Y2421128D01*
G01X2525522Y2210308D02*
G01X2523490Y2214118D01*
G01X2519680Y2217928D01*
G01X2515870Y2219960D01*
G01X2508250Y2219960D01*
G01X2504440Y2217928D01*
G01X2500630Y2214118D01*
G01X2498852Y2210308D01*
G01X2496820Y2204720D01*
G01X2496820Y2195068D01*
G01X2498852Y2189480D01*
G01X2500630Y2185670D01*
G01X2504440Y2181860D01*
G01X2508250Y2179828D01*
G01X2515870Y2179828D01*
G01X2519680Y2181860D01*
G01X2523490Y2185670D01*
G01X2525522Y2189480D01*
G01X2549906Y2212340D02*
G01X2553716Y2214118D01*
G01X2559558Y2219960D01*
G01X2559558Y2179828D01*
G01X2595372Y2219960D02*
G01X2589784Y2217928D01*
G01X2585974Y2212340D01*
G01X2583942Y2202688D01*
G01X2583942Y2197100D01*
G01X2585974Y2187448D01*
G01X2589784Y2181860D01*
G01X2595372Y2179828D01*
G01X2599182Y2179828D01*
G01X2605024Y2181860D01*
G01X2608834Y2187448D01*
G01X2610612Y2197100D01*
G01X2610612Y2202688D01*
G01X2608834Y2212340D01*
G01X2605024Y2217928D01*
G01X2599182Y2219960D01*
G01X2595372Y2219960D01*
G01X2423922Y1918208D02*
G01X2421890Y1922018D01*
G01X2418080Y1925828D01*
G01X2414270Y1927860D01*
G01X2406650Y1927860D01*
G01X2402840Y1925828D01*
G01X2399030Y1922018D01*
G01X2397252Y1918208D01*
G01X2395220Y1912620D01*
G01X2395220Y1902968D01*
G01X2397252Y1897380D01*
G01X2399030Y1893570D01*
G01X2402840Y1889760D01*
G01X2406650Y1887728D01*
G01X2414270Y1887728D01*
G01X2418080Y1889760D01*
G01X2421890Y1893570D01*
G01X2423922Y1897380D01*
G01X2473198Y1914398D02*
G01X2471166Y1908810D01*
G01X2467356Y1905000D01*
G01X2461768Y1902968D01*
G01X2459736Y1902968D01*
G01X2454148Y1905000D01*
G01X2450338Y1908810D01*
G01X2448306Y1914398D01*
G01X2448306Y1916430D01*
G01X2450338Y1922018D01*
G01X2454148Y1925828D01*
G01X2459736Y1927860D01*
G01X2461768Y1927860D01*
G01X2467356Y1925828D01*
G01X2471166Y1922018D01*
G01X2473198Y1914398D01*
G01X2473198Y1905000D01*
G01X2471166Y1895348D01*
G01X2467356Y1889760D01*
G01X2461768Y1887728D01*
G01X2457958Y1887728D01*
G01X2452116Y1889760D01*
G01X2450338Y1893570D01*
G01X7830820Y1110234D02*
G01X7830820Y1063752D01*
G01X7833868Y1054608D01*
G01X7840218Y1048258D01*
G01X7849362Y1045210D01*
G01X7855712Y1045210D01*
G01X7864856Y1048258D01*
G01X7870952Y1054608D01*
G01X7874254Y1063752D01*
G01X7874254Y1110234D01*
G01X7947660Y1101090D02*
G01X7941564Y1107186D01*
G01X7932166Y1110234D01*
G01X7919720Y1110234D01*
G01X7910576Y1107186D01*
G01X7904480Y1101090D01*
G01X7904480Y1094740D01*
G01X7907528Y1088644D01*
G01X7910576Y1085596D01*
G01X7916672Y1082548D01*
G01X7935214Y1076198D01*
G01X7941564Y1073150D01*
G01X7944612Y1070102D01*
G01X7947660Y1063752D01*
G01X7947660Y1054608D01*
G01X7941564Y1048258D01*
G01X7932166Y1045210D01*
G01X7919720Y1045210D01*
G01X7910576Y1048258D01*
G01X7904480Y1054608D01*
G01X7977886Y1110234D02*
G01X7977886Y1045210D01*
G01X7977886Y1110234D02*
G01X8005572Y1110234D01*
G01X8014970Y1107186D01*
G01X8018018Y1104138D01*
G01X8021066Y1097788D01*
G01X8021066Y1091692D01*
G01X8018018Y1085596D01*
G01X8014970Y1082548D01*
G01X8005572Y1079246D01*
G01X7977886Y1079246D02*
G01X8005572Y1079246D01*
G01X8014970Y1076198D01*
G01X8018018Y1073150D01*
G01X8021066Y1067054D01*
G01X8021066Y1057656D01*
G01X8018018Y1051560D01*
G01X8014970Y1048258D01*
G01X8005572Y1045210D01*
G01X7977886Y1045210D01*
G01X8051292Y1097788D02*
G01X8057388Y1101090D01*
G01X8066532Y1110234D01*
G01X8066532Y1045210D01*
G04 Text End*

G04 PolygonModel Start*
G54D11*
G01X6956981Y1478443D02*
G01X6876984Y1478443D01*
G01X7013026Y1478397D02*
G01X7093024Y1478397D01*
G01X6956981Y1620411D02*
G01X6876984Y1620411D01*
G01X7013026Y1620363D02*
G01X7093024Y1620363D01*
G01X6846009Y1509425D02*
G01X6846009Y1589430D01*
G01X7124002Y1589377D02*
G01X7124002Y1509375D01*
G01X7093019Y1620363D02*
G02X7124002Y1589377I0J-30983D01*
G01X7124002Y1509380D02*
G02X7093019Y1478397I-30983J0D01*
G01X6876989Y1478443D02*
G02X6846009Y1509425I3J30983D01*
G01X6846009Y1589423D02*
G02X6876989Y1620411I30983J5D01*
G01X5072543Y1501219D02*
G01X5072543Y1581216D01*
G01X5072497Y1445174D02*
G01X5072497Y1365176D01*
G01X5214511Y1501219D02*
G01X5214511Y1581216D01*
G01X5214463Y1445174D02*
G01X5214463Y1365176D01*
G01X5103525Y1612191D02*
G01X5183530Y1612191D01*
G01X5183477Y1334199D02*
G01X5103475Y1334199D01*
G01X5214463Y1365181D02*
G02X5183477Y1334199I-30983J0D01*
G01X5103480Y1334199D02*
G02X5072497Y1365181I0J30983D01*
G01X5072543Y1581211D02*
G02X5103525Y1612191I30983J-3D01*
G01X5183523Y1612191D02*
G02X5214511Y1581211I5J-30983D01*
G01X4266893Y2103918D02*
G01X4346890Y2103918D01*
G01X4210848Y2103963D02*
G01X4130850Y2103963D01*
G01X4266893Y1961949D02*
G01X4346890Y1961949D01*
G01X4210848Y1961998D02*
G01X4130850Y1961998D01*
G01X4377865Y2072935D02*
G01X4377865Y1992930D01*
G01X4099872Y1992983D02*
G01X4099872Y2072985D01*
G01X4130855Y1961998D02*
G02X4099872Y1992983I0J30983D01*
G01X4099872Y2072980D02*
G02X4130855Y2103963I30983J0D01*
G01X4346885Y2103918D02*
G02X4377865Y2072935I-3J-30983D01*
G01X4377865Y1992937D02*
G02X4346885Y1961949I-30983J-5D01*
G01X4269100Y2307118D02*
G01X4349097Y2307118D01*
G01X4213055Y2307163D02*
G01X4133058Y2307163D01*
G01X4269100Y2165149D02*
G01X4349097Y2165149D01*
G01X4213055Y2165198D02*
G01X4133058Y2165198D01*
G01X4380073Y2276135D02*
G01X4380073Y2196130D01*
G01X4102080Y2196183D02*
G01X4102080Y2276185D01*
G01X4133063Y2165198D02*
G02X4102080Y2196183I0J30983D01*
G01X4102080Y2276180D02*
G02X4133063Y2307163I30983J0D01*
G01X4349092Y2307118D02*
G02X4380073Y2276135I-3J-30983D01*
G01X4380073Y2196137D02*
G02X4349092Y2165149I-30983J-5D01*
G01X2765727Y1516543D02*
G01X2685730Y1516543D01*
G01X2821772Y1516497D02*
G01X2901770Y1516497D01*
G01X2765727Y1658511D02*
G01X2685730Y1658511D01*
G01X2821772Y1658463D02*
G01X2901770Y1658463D01*
G01X2654755Y1547525D02*
G01X2654755Y1627530D01*
G01X2932748Y1627477D02*
G01X2932748Y1547475D01*
G01X2901765Y1658463D02*
G02X2932748Y1627477I0J-30983D01*
G01X2932748Y1547480D02*
G02X2901765Y1516497I-30983J0D01*
G01X2685735Y1516543D02*
G02X2654755Y1547525I3J30983D01*
G01X2654755Y1627523D02*
G02X2685735Y1658511I30983J5D01*
G01X2765727Y1720560D02*
G01X2685730Y1720560D01*
G01X2821772Y1720515D02*
G01X2901770Y1720515D01*
G01X2765727Y1862529D02*
G01X2685730Y1862529D01*
G01X2821772Y1862480D02*
G01X2901770Y1862480D01*
G01X2654755Y1751543D02*
G01X2654755Y1831548D01*
G01X2932748Y1831495D02*
G01X2932748Y1751493D01*
G01X2901765Y1862480D02*
G02X2932748Y1831495I0J-30983D01*
G01X2932748Y1751498D02*
G02X2901765Y1720515I-30983J0D01*
G01X2685735Y1720560D02*
G02X2654755Y1751543I3J30983D01*
G01X2654755Y1831541D02*
G02X2685735Y1862529I30983J5D01*
G01X2765727Y1935643D02*
G01X2685730Y1935643D01*
G01X2821772Y1935597D02*
G01X2901770Y1935597D01*
G01X2765727Y2077611D02*
G01X2685730Y2077611D01*
G01X2821772Y2077563D02*
G01X2901770Y2077563D01*
G01X2654755Y1966625D02*
G01X2654755Y2046630D01*
G01X2932748Y2046577D02*
G01X2932748Y1966575D01*
G01X2901765Y2077563D02*
G02X2932748Y2046577I0J-30983D01*
G01X2932748Y1966580D02*
G02X2901765Y1935597I-30983J0D01*
G01X2685735Y1935643D02*
G02X2654755Y1966625I3J30983D01*
G01X2654755Y2046623D02*
G02X2685735Y2077611I30983J5D01*
G01X2765727Y2150273D02*
G01X2685730Y2150273D01*
G01X2821772Y2150227D02*
G01X2901770Y2150227D01*
G01X2765727Y2292241D02*
G01X2685730Y2292241D01*
G01X2821772Y2292193D02*
G01X2901770Y2292193D01*
G01X2654755Y2181255D02*
G01X2654755Y2261260D01*
G01X2932748Y2261207D02*
G01X2932748Y2181205D01*
G01X2901765Y2292193D02*
G02X2932748Y2261207I0J-30983D01*
G01X2932748Y2181210D02*
G02X2901765Y2150227I-30983J0D01*
G01X2685735Y2150273D02*
G02X2654755Y2181255I3J30983D01*
G01X2654755Y2261253D02*
G02X2685735Y2292241I30983J5D01*
G01X5938357Y2245281D02*
G01X5938357Y2165284D01*
G01X5938403Y2301326D02*
G01X5938403Y2381324D01*
G01X5796389Y2245281D02*
G01X5796389Y2165284D01*
G01X5796437Y2301326D02*
G01X5796437Y2381324D01*
G01X5907375Y2134309D02*
G01X5827370Y2134309D01*
G01X5827423Y2412302D02*
G01X5907425Y2412302D01*
G01X5796437Y2381319D02*
G02X5827423Y2412302I30983J0D01*
G01X5907420Y2412302D02*
G02X5938403Y2381319I0J-30983D01*
G01X5938357Y2165289D02*
G02X5907375Y2134309I-30983J3D01*
G01X5827377Y2134309D02*
G02X5796389Y2165289I-5J30983D01*
G01X1567203Y1543964D02*
G01X1567203Y1623962D01*
G01X1567157Y1487919D02*
G01X1567157Y1407922D01*
G01X1709171Y1543964D02*
G01X1709171Y1623962D01*
G01X1709123Y1487919D02*
G01X1709123Y1407922D01*
G01X1598186Y1654937D02*
G01X1678191Y1654937D01*
G01X1678137Y1376944D02*
G01X1598135Y1376944D01*
G01X1709123Y1407927D02*
G02X1678137Y1376944I-30983J0D01*
G01X1598140Y1376944D02*
G02X1567157Y1407927I0J30983D01*
G01X1567203Y1623957D02*
G02X1598186Y1654937I30983J-3D01*
G01X1678183Y1654937D02*
G02X1709171Y1623957I5J-30983D01*
G01X2356957Y2270681D02*
G01X2356957Y2190684D01*
G01X2357003Y2326726D02*
G01X2357003Y2406724D01*
G01X2214989Y2270681D02*
G01X2214989Y2190684D01*
G01X2215037Y2326726D02*
G01X2215037Y2406724D01*
G01X2325975Y2159709D02*
G01X2245970Y2159709D01*
G01X2246023Y2437702D02*
G01X2326025Y2437702D01*
G01X2215037Y2406719D02*
G02X2246023Y2437702I30983J0D01*
G01X2326020Y2437702D02*
G02X2357003Y2406719I0J-30983D01*
G01X2356957Y2190689D02*
G02X2325975Y2159709I-30983J3D01*
G01X2245977Y2159709D02*
G02X2214989Y2190689I-5J30983D01*
G01X3676950Y1588740D02*
G01X3596950Y1588740D01*
G01X3416950Y1588740D02*
G01X3496950Y1588740D01*
G01X3676950Y2038741D02*
G01X3676950Y2034852D01*
G01X3676950Y1588740D02*
G01X3676950Y1592626D01*
G01X3416950Y2034852D02*
G01X3416950Y2038741D01*
G01X3416950Y1588740D02*
G01X3416950Y1592628D01*
G01X3416950Y2038741D02*
G01X3676950Y2038741D01*
G01X3596950Y1588740D02*
G03X3496912Y1588696I-50019J-377D01*
G01X8058950Y2565844D02*
G01X7491326Y2565844D01*
G01X7491326Y2565844D02*
G01X7491326Y2334557D01*
G01X8412295Y1245044D02*
G01X8494626Y1245044D01*
G01X8494626Y1245044D02*
G01X8494626Y2565844D01*
G01X8494626Y2565844D02*
G01X8412295Y2565844D01*
G01X7491329Y1476332D02*
G01X7491329Y1245044D01*
G01X7491329Y1245044D02*
G01X8058950Y1245044D01*
G01X7491329Y2084558D02*
G01X7491329Y2176330D01*
G01X7491329Y1884558D02*
G01X7491329Y1926331D01*
G01X7491329Y1634559D02*
G01X7491329Y1726331D01*
G01X8083169Y2163252D02*
G01X8083169Y2366254D01*
G01X7962153Y2149254D02*
G01X7962153Y2375268D01*
G01X8073260Y1475146D02*
G01X8073260Y1678140D01*
G01X7952262Y1461148D02*
G01X7952262Y1687157D01*
G01X7725735Y1755965D02*
G01X8299788Y1720408D01*
G01X8299788Y1720408D02*
G01X8299788Y1430843D01*
G01X8299788Y1430843D02*
G01X7725735Y1382585D01*
G01X7725735Y1382585D02*
G01X7725735Y1433385D01*
G01X7725735Y1433385D02*
G01X8239252Y1483906D01*
G01X8239252Y1483906D02*
G01X8239252Y1658935D01*
G01X8239252Y1658935D02*
G01X7725735Y1717865D01*
G01X7725735Y1717865D02*
G01X7725735Y1755965D01*
G01X7732629Y2438844D02*
G01X8306288Y2404044D01*
G01X8306288Y2404044D02*
G01X8305792Y2115520D01*
G01X8305792Y2115520D02*
G01X7732288Y2066023D01*
G01X7732288Y2066023D02*
G01X7732679Y2116897D01*
G01X7732679Y2116897D02*
G01X8186704Y2167928D01*
G01X8186704Y2167928D02*
G01X8254528Y2175444D01*
G01X8254528Y2175444D02*
G01X8253448Y2350427D01*
G01X8253448Y2350427D02*
G01X7775628Y2397823D01*
G01X7775628Y2397823D02*
G01X7732629Y2400818D01*
G01X7732629Y2400818D02*
G01X7732629Y2438844D01*
G01X6159500Y422976D02*
G01X6159500Y990600D01*
G01X6159500Y990600D02*
G01X5928213Y990600D01*
G01X4838700Y69632D02*
G01X4838700Y-12700D01*
G01X4838700Y-12700D02*
G01X6159500Y-12700D01*
G01X6159500Y-12700D02*
G01X6159500Y69632D01*
G01X5069987Y990597D02*
G01X4838700Y990597D01*
G01X4838700Y990597D02*
G01X4838700Y422976D01*
G01X5678213Y990597D02*
G01X5769986Y990597D01*
G01X5478214Y990597D02*
G01X5519986Y990597D01*
G01X5228214Y990597D02*
G01X5319987Y990597D01*
G01X5756907Y398757D02*
G01X5959909Y398757D01*
G01X5742910Y519773D02*
G01X5968924Y519773D01*
G01X5068801Y408666D02*
G01X5271795Y408666D01*
G01X5054803Y529664D02*
G01X5280812Y529664D01*
G01X5349621Y756191D02*
G01X5314064Y182138D01*
G01X5314064Y182138D02*
G01X5024498Y182138D01*
G01X5024498Y182138D02*
G01X4976241Y756191D01*
G01X4976241Y756191D02*
G01X5027041Y756191D01*
G01X5027041Y756191D02*
G01X5077562Y242674D01*
G01X5077562Y242674D02*
G01X5252590Y242674D01*
G01X5252590Y242674D02*
G01X5311521Y756191D01*
G01X5311521Y756191D02*
G01X5349621Y756191D01*
G01X6032500Y749297D02*
G01X5997699Y175638D01*
G01X5997699Y175638D02*
G01X5709176Y176134D01*
G01X5709176Y176134D02*
G01X5659679Y749638D01*
G01X5659679Y749638D02*
G01X5710552Y749247D01*
G01X5710552Y749247D02*
G01X5761584Y295222D01*
G01X5761584Y295222D02*
G01X5769099Y227399D01*
G01X5769099Y227399D02*
G01X5944083Y228478D01*
G01X5944083Y228478D02*
G01X5991479Y706298D01*
G01X5991479Y706298D02*
G01X5994474Y749297D01*
G01X5994474Y749297D02*
G01X6032500Y749297D01*
G01X4852533Y3420161D02*
G01X4852533Y2852537D01*
G01X4852533Y2852537D02*
G01X5083820Y2852537D01*
G01X6173333Y3773505D02*
G01X6173333Y3855837D01*
G01X6173333Y3855837D02*
G01X4852533Y3855837D01*
G01X4852533Y3855837D02*
G01X4852533Y3773505D01*
G01X5942046Y2852539D02*
G01X6173333Y2852539D01*
G01X6173333Y2852539D02*
G01X6173333Y3420161D01*
G01X5333820Y2852539D02*
G01X5242047Y2852539D01*
G01X5533819Y2852539D02*
G01X5492046Y2852539D01*
G01X5783819Y2852539D02*
G01X5692046Y2852539D01*
G01X5255125Y3444380D02*
G01X5052124Y3444380D01*
G01X5269123Y3323364D02*
G01X5043109Y3323364D01*
G01X5943232Y3434471D02*
G01X5740237Y3434471D01*
G01X5957230Y3313473D02*
G01X5731220Y3313473D01*
G01X5662412Y3086946D02*
G01X5697969Y3660999D01*
G01X5697969Y3660999D02*
G01X5987534Y3660999D01*
G01X5987534Y3660999D02*
G01X6035792Y3086946D01*
G01X6035792Y3086946D02*
G01X5984992Y3086946D01*
G01X5984992Y3086946D02*
G01X5934471Y3600463D01*
G01X5934471Y3600463D02*
G01X5759442Y3600463D01*
G01X5759442Y3600463D02*
G01X5700512Y3086946D01*
G01X5700512Y3086946D02*
G01X5662412Y3086946D01*
G01X4979533Y3093839D02*
G01X5014333Y3667498D01*
G01X5014333Y3667498D02*
G01X5302857Y3667003D01*
G01X5302857Y3667003D02*
G01X5352354Y3093499D01*
G01X5352354Y3093499D02*
G01X5301480Y3093890D01*
G01X5301480Y3093890D02*
G01X5250449Y3547915D01*
G01X5250449Y3547915D02*
G01X5242933Y3615738D01*
G01X5242933Y3615738D02*
G01X5067950Y3614659D01*
G01X5067950Y3614659D02*
G01X5020554Y3136839D01*
G01X5020554Y3136839D02*
G01X5017559Y3093839D01*
G01X5017559Y3093839D02*
G01X4979533Y3093839D01*
G01X2640526Y402471D02*
G01X2640526Y970095D01*
G01X2640526Y970095D02*
G01X2409238Y970095D01*
G01X1319726Y49126D02*
G01X1319726Y-33205D01*
G01X1319726Y-33205D02*
G01X2640526Y-33205D01*
G01X2640526Y-33205D02*
G01X2640526Y49126D01*
G01X1551013Y970092D02*
G01X1319726Y970092D01*
G01X1319726Y970092D02*
G01X1319726Y402471D01*
G01X2159239Y970092D02*
G01X2251012Y970092D01*
G01X1959239Y970092D02*
G01X2001012Y970092D01*
G01X1709240Y970092D02*
G01X1801012Y970092D01*
G01X2237933Y378252D02*
G01X2440935Y378252D01*
G01X2223935Y499267D02*
G01X2449949Y499267D01*
G01X1549827Y388160D02*
G01X1752821Y388160D01*
G01X1535829Y509158D02*
G01X1761838Y509158D01*
G01X1830647Y735686D02*
G01X1795089Y161633D01*
G01X1795089Y161633D02*
G01X1505524Y161633D01*
G01X1505524Y161633D02*
G01X1457267Y735686D01*
G01X1457267Y735686D02*
G01X1508067Y735686D01*
G01X1508067Y735686D02*
G01X1558587Y222169D01*
G01X1558587Y222169D02*
G01X1733616Y222169D01*
G01X1733616Y222169D02*
G01X1792547Y735686D01*
G01X1792547Y735686D02*
G01X1830647Y735686D01*
G01X2513526Y728792D02*
G01X2478725Y155133D01*
G01X2478725Y155133D02*
G01X2190201Y155628D01*
G01X2190201Y155628D02*
G01X2140704Y729132D01*
G01X2140704Y729132D02*
G01X2191578Y728741D01*
G01X2191578Y728741D02*
G01X2242609Y274716D01*
G01X2242609Y274716D02*
G01X2250125Y206893D01*
G01X2250125Y206893D02*
G01X2425108Y207973D01*
G01X2425108Y207973D02*
G01X2472505Y685792D01*
G01X2472505Y685792D02*
G01X2475499Y728792D01*
G01X2475499Y728792D02*
G01X2513526Y728792D01*
G01X1282700Y3399724D02*
G01X1282700Y2832100D01*
G01X1282700Y2832100D02*
G01X1513987Y2832100D01*
G01X2603500Y3753068D02*
G01X2603500Y3835400D01*
G01X2603500Y3835400D02*
G01X1282700Y3835400D01*
G01X1282700Y3835400D02*
G01X1282700Y3753068D01*
G01X2372213Y2832103D02*
G01X2603500Y2832103D01*
G01X2603500Y2832103D02*
G01X2603500Y3399724D01*
G01X1763987Y2832103D02*
G01X1672214Y2832103D01*
G01X1963986Y2832103D02*
G01X1922214Y2832103D01*
G01X2213986Y2832103D02*
G01X2122213Y2832103D01*
G01X1685293Y3423943D02*
G01X1482291Y3423943D01*
G01X1699290Y3302927D02*
G01X1473276Y3302927D01*
G01X2373399Y3414034D02*
G01X2170405Y3414034D01*
G01X2387397Y3293036D02*
G01X2161388Y3293036D01*
G01X2092579Y3066509D02*
G01X2128136Y3640562D01*
G01X2128136Y3640562D02*
G01X2417702Y3640562D01*
G01X2417702Y3640562D02*
G01X2465959Y3066509D01*
G01X2465959Y3066509D02*
G01X2415159Y3066509D01*
G01X2415159Y3066509D02*
G01X2364638Y3580026D01*
G01X2364638Y3580026D02*
G01X2189610Y3580026D01*
G01X2189610Y3580026D02*
G01X2130679Y3066509D01*
G01X2130679Y3066509D02*
G01X2092579Y3066509D01*
G01X1409700Y3073403D02*
G01X1444501Y3647062D01*
G01X1444501Y3647062D02*
G01X1733024Y3646566D01*
G01X1733024Y3646566D02*
G01X1782521Y3073062D01*
G01X1782521Y3073062D02*
G01X1731648Y3073453D01*
G01X1731648Y3073453D02*
G01X1680616Y3527478D01*
G01X1680616Y3527478D02*
G01X1673101Y3595301D01*
G01X1673101Y3595301D02*
G01X1498117Y3594222D01*
G01X1498117Y3594222D02*
G01X1450721Y3116402D01*
G01X1450721Y3116402D02*
G01X1447726Y3073403D01*
G01X1447726Y3073403D02*
G01X1409700Y3073403D01*

G04 Circle Start*
G01X3720432Y1581737D02*
G03X3745476Y1581737I12522J0D01*
G03X3720432Y1581737I-12522J0D01*
G04 Circle End*

M02*

