G04 Layer: TopPasteMaskLayer*
G04 EasyEDA Pro v2.2.47.7, 2026-05-17 18:59:03*
G04 Gerber Generator version 0.3*
G04 Scale: 100 percent, Rotated: No, Reflected: No*
G04 Dimensions in millimeters*
G04 Leading zeros omitted, absolute positions, 4 integers and 5 decimals*
G04 Generated by one-click*
G04 Object Configs: Pad,Via,Track,Text,Image,Dimension,BoardOutline,BoardCutout,CopperFilled,SolidRegion,FPCStiffener,Line,PlaneZone,ComponentProperty,ComponentSilkscreen,TearDrop*
G04 Layer Configs: 1,2,3,4,5,6,7,8,9,10,11,13,14,56*
G04 Copper Areas: 0*
%FSLAX45Y45*%
%MOMM*%
%ADD10R,0.8X0.9*%
%ADD11R,0.9X0.8*%
%ADD12R,1.2X0.25001*%
%ADD13C,0.1206*%
G75*


G04 PolygonModel Start*
G36*
G01X8140621Y1200437D02*
G02X8140621Y1320437I0J60000D01*
G01X8330623Y1320437D01*
G02X8330623Y1200437I0J-60000D01*
G01X8140621Y1200437D01*
G37*
G36*
G01X8140621Y2490452D02*
G02X8140621Y2610452I0J60000D01*
G01X8330623Y2610452D01*
G02X8330623Y2490452I0J-60000D01*
G01X8140621Y2490452D01*
G37*
G36*
G01X7212630Y2199444D02*
G01X7212630Y2311443D01*
G01X7500630Y2311443D01*
G01X7500630Y2199444D01*
G01X7212630Y2199444D01*
G37*
G36*
G01X7212630Y1949445D02*
G01X7212630Y2061444D01*
G01X7500630Y2061444D01*
G01X7500630Y1949445D01*
G01X7212630Y1949445D01*
G37*
G36*
G01X7212630Y1749445D02*
G01X7212630Y1861444D01*
G01X7500630Y1861444D01*
G01X7500630Y1749445D01*
G01X7212630Y1749445D01*
G37*
G36*
G01X7212630Y1499446D02*
G01X7212630Y1611445D01*
G01X7500630Y1611445D01*
G01X7500630Y1499446D01*
G01X7212630Y1499446D01*
G37*
G36*
G01X4794093Y341305D02*
G02X4914092Y341305I60000J0D01*
G01X4914092Y151303D01*
G02X4794093Y151303I-60000J0D01*
G01X4794093Y341305D01*
G37*
G36*
G01X6084108Y341305D02*
G02X6204107Y341305I60000J0D01*
G01X6204107Y151303D01*
G02X6084108Y151303I-60000J0D01*
G01X6084108Y341305D01*
G37*
G36*
G01X5793100Y1269296D02*
G01X5905099Y1269296D01*
G01X5905099Y981296D01*
G01X5793100Y981296D01*
G01X5793100Y1269296D01*
G37*
G36*
G01X5543100Y1269296D02*
G01X5655099Y1269296D01*
G01X5655099Y981296D01*
G01X5543100Y981296D01*
G01X5543100Y1269296D01*
G37*
G36*
G01X5343101Y1269296D02*
G01X5455100Y1269296D01*
G01X5455100Y981296D01*
G01X5343101Y981296D01*
G01X5343101Y1269296D01*
G37*
G36*
G01X5093101Y1269296D02*
G01X5205100Y1269296D01*
G01X5205100Y981296D01*
G01X5093101Y981296D01*
G01X5093101Y1269296D01*
G37*
G36*
G01X6217940Y3501832D02*
G02X6097941Y3501832I-60000J0D01*
G01X6097941Y3691834D01*
G02X6217940Y3691834I60000J0D01*
G01X6217940Y3501832D01*
G37*
G36*
G01X4927925Y3501832D02*
G02X4807925Y3501832I-60000J0D01*
G01X4807925Y3691834D01*
G02X4927925Y3691834I60000J0D01*
G01X4927925Y3501832D01*
G37*
G36*
G01X5218933Y2573840D02*
G01X5106934Y2573840D01*
G01X5106934Y2861841D01*
G01X5218933Y2861841D01*
G01X5218933Y2573840D01*
G37*
G36*
G01X5468932Y2573840D02*
G01X5356934Y2573840D01*
G01X5356934Y2861841D01*
G01X5468932Y2861841D01*
G01X5468932Y2573840D01*
G37*
G36*
G01X5668932Y2573840D02*
G01X5556933Y2573840D01*
G01X5556933Y2861841D01*
G01X5668932Y2861841D01*
G01X5668932Y2573840D01*
G37*
G36*
G01X5918932Y2573840D02*
G01X5806933Y2573840D01*
G01X5806933Y2861841D01*
G01X5918932Y2861841D01*
G01X5918932Y2573840D01*
G37*
G36*
G01X1275118Y320799D02*
G02X1395118Y320799I60000J0D01*
G01X1395118Y130797D01*
G02X1275118Y130797I-60000J0D01*
G01X1275118Y320799D01*
G37*
G36*
G01X2565133Y320799D02*
G02X2685133Y320799I60000J0D01*
G01X2685133Y130797D01*
G02X2565133Y130797I-60000J0D01*
G01X2565133Y320799D01*
G37*
G36*
G01X2274126Y1248791D02*
G01X2386124Y1248791D01*
G01X2386124Y960791D01*
G01X2274126Y960791D01*
G01X2274126Y1248791D01*
G37*
G36*
G01X2024126Y1248791D02*
G01X2136125Y1248791D01*
G01X2136125Y960791D01*
G01X2024126Y960791D01*
G01X2024126Y1248791D01*
G37*
G36*
G01X1824126Y1248791D02*
G01X1936125Y1248791D01*
G01X1936125Y960791D01*
G01X1824126Y960791D01*
G01X1824126Y1248791D01*
G37*
G36*
G01X1574127Y1248791D02*
G01X1686126Y1248791D01*
G01X1686126Y960791D01*
G01X1574127Y960791D01*
G01X1574127Y1248791D01*
G37*
G36*
G01X2648107Y3481395D02*
G02X2528108Y3481395I-60000J0D01*
G01X2528108Y3671397D01*
G02X2648107Y3671397I60000J0D01*
G01X2648107Y3481395D01*
G37*
G36*
G01X1358092Y3481395D02*
G02X1238093Y3481395I-60000J0D01*
G01X1238093Y3671397D01*
G02X1358092Y3671397I60000J0D01*
G01X1358092Y3481395D01*
G37*
G36*
G01X1649100Y2553404D02*
G01X1537101Y2553404D01*
G01X1537101Y2841404D01*
G01X1649100Y2841404D01*
G01X1649100Y2553404D01*
G37*
G36*
G01X1899100Y2553404D02*
G01X1787101Y2553404D01*
G01X1787101Y2841404D01*
G01X1899100Y2841404D01*
G01X1899100Y2553404D01*
G37*
G36*
G01X2099099Y2553404D02*
G01X1987100Y2553404D01*
G01X1987100Y2841404D01*
G01X2099099Y2841404D01*
G01X2099099Y2553404D01*
G37*
G36*
G01X2349099Y2553404D02*
G01X2237100Y2553404D01*
G01X2237100Y2841404D01*
G01X2349099Y2841404D01*
G01X2349099Y2553404D01*
G37*

G04 Pad Start*
G54D10*
G01X7055002Y1549400D03*
G01X6914998Y1549400D03*
G54D11*
G01X5143500Y1403198D03*
G01X5143500Y1543202D03*
G54D10*
G01X4168872Y2032960D03*
G01X4308876Y2032960D03*
G01X4171079Y2236160D03*
G01X4311084Y2236160D03*
G01X2863748Y1587500D03*
G01X2723744Y1587500D03*
G01X2863748Y1791518D03*
G01X2723744Y1791518D03*
G01X2863748Y2006600D03*
G01X2723744Y2006600D03*
G01X2863748Y2221230D03*
G01X2723744Y2221230D03*
G54D11*
G01X5867400Y2343302D03*
G01X5867400Y2203298D03*
G01X1638160Y1445943D03*
G01X1638160Y1585948D03*
G01X2286000Y2368702D03*
G01X2286000Y2228698D03*
G54D12*
G01X3726960Y1628244D03*
G01X3726960Y1681254D03*
G01X3726960Y1734238D03*
G01X3726960Y1787248D03*
G01X3726960Y1840233D03*
G01X3726960Y1893242D03*
G01X3726960Y1946252D03*
G01X3726960Y1999237D03*
G01X3366940Y1999237D03*
G01X3366940Y1946252D03*
G01X3366940Y1893242D03*
G01X3366940Y1840233D03*
G01X3366940Y1787248D03*
G01X3366940Y1734238D03*
G01X3366940Y1681254D03*
G01X3366940Y1628244D03*
G04 Pad End*

M02*

